<svg xmlns="http://www.w3.org/2000/svg" viewBox="0 0 740.04 196.89"><defs><style>.cls-1{fill:#cfcfce;fill-rule:evenodd;}</style></defs><title>Asset 6</title><g id="Layer_2" data-name="Layer 2"><g id="Livello_1" data-name="Livello 1"><path class="cls-1" d="M166.06,43.88c14.93-3.73,23.29-5.35,80.85-5.35H740V0H327V0H279.5C209.44,0,165,0,130.07,10.69,67.09,30,61.92,84.22,61.92,84.22L62.23,0H0V196.89H61.92V124.3H177.1c49.1,0,69.42,10.32,91.34,34.37,16.87,18.51,31.77,38.22,31.77,38.22h59.42s-30.29-44.38-58.5-72.59C281,104.21,268.62,97.88,252.87,92.41c-14.17-4.91-36.59-8.2-62.89-8.2H119.65S123.49,54.52,166.06,43.88Z"/></g></g></svg>