<svg xmlns="http://www.w3.org/2000/svg" viewBox="0 0 1136.91 196.96"><defs><style>.cls-1,.cls-2{fill:#cfcfce;}.cls-1{fill-rule:evenodd;}</style></defs><title>Asset 10</title><g id="Layer_2" data-name="Layer 2"><g id="Livello_1" data-name="Livello 1"><path class="cls-1" d="M817.2,0c-40.55,0-58.83,33.68-58.83,49V158.37l-378.79-.27v38.82H758.37v0h40.55V70.17c0-15.23,5.14-32,28-32h270V84.44H839.46V125h257.48v72h40V0Z"/><path id="middle" class="cls-2" d="M379.64,121H740V80.88H379.64Z"/><path class="cls-1" d="M166.06,43.94c14.93-3.73,23.29-5.35,80.85-5.35H740V.09H327v0H279.5C209.44.06,165,.06,130.07,10.75,67.09,30,61.92,84.28,61.92,84.28L62.23.06H0V197H61.92V124.37H177.1c49.1,0,69.42,10.32,91.34,34.38C285.31,177.25,300.21,197,300.21,197h59.42s-30.29-44.38-58.5-72.59C281,104.27,268.62,97.94,252.87,92.48c-14.17-4.91-36.59-8.2-62.89-8.2H119.65S123.49,54.58,166.06,43.94Z"/></g></g></svg>